# xmcd
#
# Track frame offsets: 
#        150
#        17732
#        32445
#        50790
#        63722
#        81675
#        99622
#        113982
#        136092
#        154200
#        167852
#        184847
#        194757
#        208857
#        226905
#        251857
#        265925
#        281750
#        300330
#        322350
#
# Disc length: 4405 seconds
#
# Revision: 0
# Processed by: cddbd v1.5PL3 Copyright (c) Steve Scherf et al.
# Submitted via: ExactAudioCopy v0.95a4
#
DISCID=37113314
DTITLE=Lightnin' Hopkins - Live 1971
DYEAR=1900
DGENRE=Blues
TTITLE0=I Got A Feeling
TTITLE1=Walking All Night Long
TTITLE2=I Crawled By Your Window
TTITLE3=Take Me Back
TTITLE4=Blues Is My Business
TTITLE5=Mojo Hand
TTITLE6=Pinetop?s Boogie
TTITLE7=Throw This Old Dog A Bone
TTITLE8=Cook My Breakfast
TTITLE9=You Can Look At Me
TTITLE10=Rock Me Baby
TTITLE11=Put Your Red Dress On
TTITLE12=Lightnin' (He) Can Do It
TTITLE13=Lightnin' Boogie
TTITLE14=Mr. Charlie
TTITLE15=Baby Please Don?t Go
TTITLE16=Lightnin's Gone Again
TTITLE17=One-Eyed Woman
TTITLE18=Hardly Trying
TTITLE19=You're Gonna Miss Me When I'm Gone
EXTD=
EXTT0=
EXTT1=
EXTT2=
EXTT3=
EXTT4=
EXTT5=
EXTT6=
EXTT7=
EXTT8=
EXTT9=
EXTT10=
EXTT11=
EXTT12=
EXTT13=
EXTT14=
EXTT15=
EXTT16=
EXTT17=
EXTT18=
EXTT19=
PLAYORDER=
